<?xml version="1.0" encoding="UTF-8" standalone="no"?>
<!DOCTYPE svg PUBLIC "-//W3C//DTD SVG 1.1//EN"
 "http://www.w3.org/Graphics/SVG/1.1/DTD/svg11.dtd">
<!-- Generated by graphviz version 5.0.0 (20220707.1540)
 -->
<!-- Title: controllers_diagram Pages: 1 -->
<svg width="844pt" height="820pt"
 viewBox="0.00 0.00 844.00 820.00" xmlns="http://www.w3.org/2000/svg" xmlns:xlink="http://www.w3.org/1999/xlink">
<g id="graph0" class="graph" transform="scale(1 1) rotate(0) translate(4 816)">
<title>controllers_diagram</title>
<polygon fill="transparent" stroke="transparent" points="-4,4 -4,-816 840,-816 840,4 -4,4"/>
<!-- _diagram_info -->
<g id="node1" class="node">
<title>_diagram_info</title>
<text text-anchor="start" x="635" y="-652.6" font-family="Times New Roman,serif" font-size="13.00">Controllers diagram</text>
<text text-anchor="start" x="635" y="-638.6" font-family="Times New Roman,serif" font-size="13.00">Date: Jul 30 2022 &#45; 18:26</text>
<text text-anchor="start" x="635" y="-624.6" font-family="Times New Roman,serif" font-size="13.00">Migration version: 20220725013815</text>
<text text-anchor="start" x="635" y="-610.6" font-family="Times New Roman,serif" font-size="13.00">Generated by RailRoady 1.6.0</text>
<text text-anchor="start" x="635" y="-596.6" font-family="Times New Roman,serif" font-size="13.00">http://railroady.prestonlee.com</text>
</g>
<!-- AboutController -->
<g id="node2" class="node">
<title>AboutController</title>
<path fill="none" stroke="black" d="M506,-703.5C506,-703.5 608,-703.5 608,-703.5 614,-703.5 620,-709.5 620,-715.5 620,-715.5 620,-799.5 620,-799.5 620,-805.5 614,-811.5 608,-811.5 608,-811.5 506,-811.5 506,-811.5 500,-811.5 494,-805.5 494,-799.5 494,-799.5 494,-715.5 494,-715.5 494,-709.5 500,-703.5 506,-703.5"/>
<text text-anchor="middle" x="557" y="-796.3" font-family="Times New Roman,serif" font-size="14.00">AboutController</text>
<polyline fill="none" stroke="black" points="494,-788.5 620,-788.5 "/>
<text text-anchor="start" x="502" y="-773.3" font-family="Times New Roman,serif" font-size="14.00">index</text>
<polyline fill="none" stroke="black" points="494,-765.5 620,-765.5 "/>
<polyline fill="none" stroke="black" points="494,-741.5 620,-741.5 "/>
<text text-anchor="start" x="502" y="-726.3" font-family="Times New Roman,serif" font-size="14.00">_layout_from_proc</text>
<text text-anchor="start" x="502" y="-711.3" font-family="Times New Roman,serif" font-size="14.00">_layout</text>
</g>
<!-- Admin::AnswersController -->
<g id="node3" class="node">
<title>Admin::AnswersController</title>
<path fill="none" stroke="black" d="M411,-209.5C411,-209.5 552,-209.5 552,-209.5 558,-209.5 564,-215.5 564,-221.5 564,-221.5 564,-410.5 564,-410.5 564,-416.5 558,-422.5 552,-422.5 552,-422.5 411,-422.5 411,-422.5 405,-422.5 399,-416.5 399,-410.5 399,-410.5 399,-221.5 399,-221.5 399,-215.5 405,-209.5 411,-209.5"/>
<text text-anchor="middle" x="481.5" y="-407.3" font-family="Times New Roman,serif" font-size="14.00">Admin::AnswersController</text>
<polyline fill="none" stroke="black" points="399,-399.5 564,-399.5 "/>
<text text-anchor="start" x="407" y="-384.3" font-family="Times New Roman,serif" font-size="14.00">create</text>
<text text-anchor="start" x="407" y="-369.3" font-family="Times New Roman,serif" font-size="14.00">destroy</text>
<text text-anchor="start" x="407" y="-354.3" font-family="Times New Roman,serif" font-size="14.00">edit</text>
<text text-anchor="start" x="407" y="-339.3" font-family="Times New Roman,serif" font-size="14.00">index</text>
<text text-anchor="start" x="407" y="-324.3" font-family="Times New Roman,serif" font-size="14.00">new</text>
<text text-anchor="start" x="407" y="-309.3" font-family="Times New Roman,serif" font-size="14.00">show</text>
<text text-anchor="start" x="407" y="-294.3" font-family="Times New Roman,serif" font-size="14.00">update</text>
<text text-anchor="start" x="407" y="-279.3" font-family="Times New Roman,serif" font-size="14.00">answer_params</text>
<polyline fill="none" stroke="black" points="399,-271.5 564,-271.5 "/>
<polyline fill="none" stroke="black" points="399,-247.5 564,-247.5 "/>
<text text-anchor="start" x="407" y="-232.3" font-family="Times New Roman,serif" font-size="14.00">_layout_from_proc</text>
<text text-anchor="start" x="407" y="-217.3" font-family="Times New Roman,serif" font-size="14.00">_layout</text>
</g>
<!-- Admin::CoursesController -->
<g id="node4" class="node">
<title>Admin::CoursesController</title>
<path fill="none" stroke="black" d="M430,-456.5C430,-456.5 569,-456.5 569,-456.5 575,-456.5 581,-462.5 581,-468.5 581,-468.5 581,-657.5 581,-657.5 581,-663.5 575,-669.5 569,-669.5 569,-669.5 430,-669.5 430,-669.5 424,-669.5 418,-663.5 418,-657.5 418,-657.5 418,-468.5 418,-468.5 418,-462.5 424,-456.5 430,-456.5"/>
<text text-anchor="middle" x="499.5" y="-654.3" font-family="Times New Roman,serif" font-size="14.00">Admin::CoursesController</text>
<polyline fill="none" stroke="black" points="418,-646.5 581,-646.5 "/>
<text text-anchor="start" x="426" y="-631.3" font-family="Times New Roman,serif" font-size="14.00">create</text>
<text text-anchor="start" x="426" y="-616.3" font-family="Times New Roman,serif" font-size="14.00">destroy</text>
<text text-anchor="start" x="426" y="-601.3" font-family="Times New Roman,serif" font-size="14.00">edit</text>
<text text-anchor="start" x="426" y="-586.3" font-family="Times New Roman,serif" font-size="14.00">index</text>
<text text-anchor="start" x="426" y="-571.3" font-family="Times New Roman,serif" font-size="14.00">new</text>
<text text-anchor="start" x="426" y="-556.3" font-family="Times New Roman,serif" font-size="14.00">show</text>
<text text-anchor="start" x="426" y="-541.3" font-family="Times New Roman,serif" font-size="14.00">update</text>
<text text-anchor="start" x="426" y="-526.3" font-family="Times New Roman,serif" font-size="14.00">course_params</text>
<polyline fill="none" stroke="black" points="418,-518.5 581,-518.5 "/>
<polyline fill="none" stroke="black" points="418,-494.5 581,-494.5 "/>
<text text-anchor="start" x="426" y="-479.3" font-family="Times New Roman,serif" font-size="14.00">_layout_from_proc</text>
<text text-anchor="start" x="426" y="-464.3" font-family="Times New Roman,serif" font-size="14.00">_layout</text>
</g>
<!-- Admin::QuestionsController -->
<g id="node5" class="node">
<title>Admin::QuestionsController</title>
<path fill="none" stroke="black" d="M202,-209.5C202,-209.5 351,-209.5 351,-209.5 357,-209.5 363,-215.5 363,-221.5 363,-221.5 363,-410.5 363,-410.5 363,-416.5 357,-422.5 351,-422.5 351,-422.5 202,-422.5 202,-422.5 196,-422.5 190,-416.5 190,-410.5 190,-410.5 190,-221.5 190,-221.5 190,-215.5 196,-209.5 202,-209.5"/>
<text text-anchor="middle" x="276.5" y="-407.3" font-family="Times New Roman,serif" font-size="14.00">Admin::QuestionsController</text>
<polyline fill="none" stroke="black" points="190,-399.5 363,-399.5 "/>
<text text-anchor="start" x="198" y="-384.3" font-family="Times New Roman,serif" font-size="14.00">destroy</text>
<text text-anchor="start" x="198" y="-369.3" font-family="Times New Roman,serif" font-size="14.00">edit</text>
<text text-anchor="start" x="198" y="-354.3" font-family="Times New Roman,serif" font-size="14.00">index</text>
<text text-anchor="start" x="198" y="-339.3" font-family="Times New Roman,serif" font-size="14.00">new</text>
<text text-anchor="start" x="198" y="-324.3" font-family="Times New Roman,serif" font-size="14.00">question_params</text>
<text text-anchor="start" x="198" y="-309.3" font-family="Times New Roman,serif" font-size="14.00">show</text>
<text text-anchor="start" x="198" y="-294.3" font-family="Times New Roman,serif" font-size="14.00">update</text>
<text text-anchor="start" x="198" y="-279.3" font-family="Times New Roman,serif" font-size="14.00">create</text>
<polyline fill="none" stroke="black" points="190,-271.5 363,-271.5 "/>
<polyline fill="none" stroke="black" points="190,-247.5 363,-247.5 "/>
<text text-anchor="start" x="198" y="-232.3" font-family="Times New Roman,serif" font-size="14.00">_layout_from_proc</text>
<text text-anchor="start" x="198" y="-217.3" font-family="Times New Roman,serif" font-size="14.00">_layout</text>
</g>
<!-- Admin::SemestersController -->
<g id="node6" class="node">
<title>Admin::SemestersController</title>
<path fill="none" stroke="black" d="M297,-0.5C297,-0.5 446,-0.5 446,-0.5 452,-0.5 458,-6.5 458,-12.5 458,-12.5 458,-156.5 458,-156.5 458,-162.5 452,-168.5 446,-168.5 446,-168.5 297,-168.5 297,-168.5 291,-168.5 285,-162.5 285,-156.5 285,-156.5 285,-12.5 285,-12.5 285,-6.5 291,-0.5 297,-0.5"/>
<text text-anchor="middle" x="371.5" y="-153.3" font-family="Times New Roman,serif" font-size="14.00">Admin::SemestersController</text>
<polyline fill="none" stroke="black" points="285,-145.5 458,-145.5 "/>
<text text-anchor="start" x="293" y="-130.3" font-family="Times New Roman,serif" font-size="14.00">index</text>
<text text-anchor="start" x="293" y="-115.3" font-family="Times New Roman,serif" font-size="14.00">update</text>
<text text-anchor="start" x="293" y="-100.3" font-family="Times New Roman,serif" font-size="14.00">edit</text>
<polyline fill="none" stroke="black" points="285,-92.5 458,-92.5 "/>
<polyline fill="none" stroke="black" points="285,-68.5 458,-68.5 "/>
<text text-anchor="start" x="293" y="-53.3" font-family="Times New Roman,serif" font-size="14.00">_layout_from_proc</text>
<text text-anchor="start" x="293" y="-38.3" font-family="Times New Roman,serif" font-size="14.00">semester_params</text>
<text text-anchor="start" x="293" y="-23.3" font-family="Times New Roman,serif" font-size="14.00">set_semester</text>
<text text-anchor="start" x="293" y="-8.3" font-family="Times New Roman,serif" font-size="14.00">_layout</text>
</g>
<!-- Admin::UsersController -->
<g id="node7" class="node">
<title>Admin::UsersController</title>
<path fill="none" stroke="black" d="M12,-323.5C12,-323.5 137,-323.5 137,-323.5 143,-323.5 149,-329.5 149,-335.5 149,-335.5 149,-524.5 149,-524.5 149,-530.5 143,-536.5 137,-536.5 137,-536.5 12,-536.5 12,-536.5 6,-536.5 0,-530.5 0,-524.5 0,-524.5 0,-335.5 0,-335.5 0,-329.5 6,-323.5 12,-323.5"/>
<text text-anchor="middle" x="74.5" y="-521.3" font-family="Times New Roman,serif" font-size="14.00">Admin::UsersController</text>
<polyline fill="none" stroke="black" points="0,-513.5 149,-513.5 "/>
<text text-anchor="start" x="8" y="-498.3" font-family="Times New Roman,serif" font-size="14.00">destroy</text>
<text text-anchor="start" x="8" y="-483.3" font-family="Times New Roman,serif" font-size="14.00">edit</text>
<text text-anchor="start" x="8" y="-468.3" font-family="Times New Roman,serif" font-size="14.00">index</text>
<text text-anchor="start" x="8" y="-453.3" font-family="Times New Roman,serif" font-size="14.00">new</text>
<text text-anchor="start" x="8" y="-438.3" font-family="Times New Roman,serif" font-size="14.00">show</text>
<text text-anchor="start" x="8" y="-423.3" font-family="Times New Roman,serif" font-size="14.00">update</text>
<text text-anchor="start" x="8" y="-408.3" font-family="Times New Roman,serif" font-size="14.00">user_params</text>
<text text-anchor="start" x="8" y="-393.3" font-family="Times New Roman,serif" font-size="14.00">create</text>
<polyline fill="none" stroke="black" points="0,-385.5 149,-385.5 "/>
<polyline fill="none" stroke="black" points="0,-361.5 149,-361.5 "/>
<text text-anchor="start" x="8" y="-346.3" font-family="Times New Roman,serif" font-size="14.00">_layout_from_proc</text>
<text text-anchor="start" x="8" y="-331.3" font-family="Times New Roman,serif" font-size="14.00">_layout</text>
</g>
<!-- ApplicationController -->
<g id="node8" class="node">
<title>ApplicationController</title>
<path fill="none" stroke="black" d="M12,-608.5C12,-608.5 185,-608.5 185,-608.5 191,-608.5 197,-614.5 197,-620.5 197,-620.5 197,-764.5 197,-764.5 197,-770.5 191,-776.5 185,-776.5 185,-776.5 12,-776.5 12,-776.5 6,-776.5 0,-770.5 0,-764.5 0,-764.5 0,-620.5 0,-620.5 0,-614.5 6,-608.5 12,-608.5"/>
<text text-anchor="middle" x="98.5" y="-761.3" font-family="Times New Roman,serif" font-size="14.00">ApplicationController</text>
<polyline fill="none" stroke="black" points="0,-753.5 197,-753.5 "/>
<text text-anchor="start" x="8" y="-738.3" font-family="Times New Roman,serif" font-size="14.00">require_is_admin_user</text>
<text text-anchor="start" x="8" y="-723.3" font-family="Times New Roman,serif" font-size="14.00">require_user</text>
<text text-anchor="start" x="8" y="-708.3" font-family="Times New Roman,serif" font-size="14.00">is_admin_user</text>
<polyline fill="none" stroke="black" points="0,-700.5 197,-700.5 "/>
<polyline fill="none" stroke="black" points="0,-676.5 197,-676.5 "/>
<text text-anchor="start" x="8" y="-661.3" font-family="Times New Roman,serif" font-size="14.00">_layout_from_proc</text>
<text text-anchor="start" x="8" y="-646.3" font-family="Times New Roman,serif" font-size="14.00">configure_permitted_parameters</text>
<text text-anchor="start" x="8" y="-631.3" font-family="Times New Roman,serif" font-size="14.00">user_not_authorized</text>
<text text-anchor="start" x="8" y="-616.3" font-family="Times New Roman,serif" font-size="14.00">_layout</text>
</g>
<!-- ForgotPasswordController -->
<g id="node9" class="node">
<title>ForgotPasswordController</title>
<path fill="none" stroke="black" d="M506,-38.5C506,-38.5 649,-38.5 649,-38.5 655,-38.5 661,-44.5 661,-50.5 661,-50.5 661,-164.5 661,-164.5 661,-170.5 655,-176.5 649,-176.5 649,-176.5 506,-176.5 506,-176.5 500,-176.5 494,-170.5 494,-164.5 494,-164.5 494,-50.5 494,-50.5 494,-44.5 500,-38.5 506,-38.5"/>
<text text-anchor="middle" x="577.5" y="-161.3" font-family="Times New Roman,serif" font-size="14.00">ForgotPasswordController</text>
<polyline fill="none" stroke="black" points="494,-153.5 661,-153.5 "/>
<text text-anchor="start" x="502" y="-138.3" font-family="Times New Roman,serif" font-size="14.00">forgot_password</text>
<text text-anchor="start" x="502" y="-123.3" font-family="Times New Roman,serif" font-size="14.00">update_password</text>
<text text-anchor="start" x="502" y="-108.3" font-family="Times New Roman,serif" font-size="14.00">edit_password</text>
<polyline fill="none" stroke="black" points="494,-100.5 661,-100.5 "/>
<polyline fill="none" stroke="black" points="494,-76.5 661,-76.5 "/>
<text text-anchor="start" x="502" y="-61.3" font-family="Times New Roman,serif" font-size="14.00">_layout_from_proc</text>
<text text-anchor="start" x="502" y="-46.3" font-family="Times New Roman,serif" font-size="14.00">_layout</text>
</g>
<!-- PurposeController -->
<g id="node10" class="node">
<title>PurposeController</title>
<path fill="none" stroke="black" d="M677,-703.5C677,-703.5 779,-703.5 779,-703.5 785,-703.5 791,-709.5 791,-715.5 791,-715.5 791,-799.5 791,-799.5 791,-805.5 785,-811.5 779,-811.5 779,-811.5 677,-811.5 677,-811.5 671,-811.5 665,-805.5 665,-799.5 665,-799.5 665,-715.5 665,-715.5 665,-709.5 671,-703.5 677,-703.5"/>
<text text-anchor="middle" x="728" y="-796.3" font-family="Times New Roman,serif" font-size="14.00">PurposeController</text>
<polyline fill="none" stroke="black" points="665,-788.5 791,-788.5 "/>
<text text-anchor="start" x="673" y="-773.3" font-family="Times New Roman,serif" font-size="14.00">index</text>
<polyline fill="none" stroke="black" points="665,-765.5 791,-765.5 "/>
<polyline fill="none" stroke="black" points="665,-741.5 791,-741.5 "/>
<text text-anchor="start" x="673" y="-726.3" font-family="Times New Roman,serif" font-size="14.00">_layout_from_proc</text>
<text text-anchor="start" x="673" y="-711.3" font-family="Times New Roman,serif" font-size="14.00">_layout</text>
</g>
<!-- QuizController -->
<g id="node11" class="node">
<title>QuizController</title>
<path fill="none" stroke="black" d="M620,-209.5C620,-209.5 722,-209.5 722,-209.5 728,-209.5 734,-215.5 734,-221.5 734,-221.5 734,-365.5 734,-365.5 734,-371.5 728,-377.5 722,-377.5 722,-377.5 620,-377.5 620,-377.5 614,-377.5 608,-371.5 608,-365.5 608,-365.5 608,-221.5 608,-221.5 608,-215.5 614,-209.5 620,-209.5"/>
<text text-anchor="middle" x="671" y="-362.3" font-family="Times New Roman,serif" font-size="14.00">QuizController</text>
<polyline fill="none" stroke="black" points="608,-354.5 734,-354.5 "/>
<text text-anchor="start" x="616" y="-339.3" font-family="Times New Roman,serif" font-size="14.00">edit</text>
<text text-anchor="start" x="616" y="-324.3" font-family="Times New Roman,serif" font-size="14.00">index</text>
<text text-anchor="start" x="616" y="-309.3" font-family="Times New Roman,serif" font-size="14.00">show</text>
<text text-anchor="start" x="616" y="-294.3" font-family="Times New Roman,serif" font-size="14.00">update</text>
<text text-anchor="start" x="616" y="-279.3" font-family="Times New Roman,serif" font-size="14.00">create</text>
<polyline fill="none" stroke="black" points="608,-271.5 734,-271.5 "/>
<polyline fill="none" stroke="black" points="608,-247.5 734,-247.5 "/>
<text text-anchor="start" x="616" y="-232.3" font-family="Times New Roman,serif" font-size="14.00">_layout_from_proc</text>
<text text-anchor="start" x="616" y="-217.3" font-family="Times New Roman,serif" font-size="14.00">_layout</text>
</g>
<!-- ResultsController -->
<g id="node12" class="node">
<title>ResultsController</title>
<path fill="none" stroke="black" d="M31,-57.5C31,-57.5 133,-57.5 133,-57.5 139,-57.5 145,-63.5 145,-69.5 145,-69.5 145,-273.5 145,-273.5 145,-279.5 139,-285.5 133,-285.5 133,-285.5 31,-285.5 31,-285.5 25,-285.5 19,-279.5 19,-273.5 19,-273.5 19,-69.5 19,-69.5 19,-63.5 25,-57.5 31,-57.5"/>
<text text-anchor="middle" x="82" y="-270.3" font-family="Times New Roman,serif" font-size="14.00">ResultsController</text>
<polyline fill="none" stroke="black" points="19,-262.5 145,-262.5 "/>
<text text-anchor="start" x="27" y="-247.3" font-family="Times New Roman,serif" font-size="14.00">destroy</text>
<text text-anchor="start" x="27" y="-232.3" font-family="Times New Roman,serif" font-size="14.00">edit</text>
<text text-anchor="start" x="27" y="-217.3" font-family="Times New Roman,serif" font-size="14.00">index</text>
<text text-anchor="start" x="27" y="-202.3" font-family="Times New Roman,serif" font-size="14.00">new</text>
<text text-anchor="start" x="27" y="-187.3" font-family="Times New Roman,serif" font-size="14.00">show</text>
<text text-anchor="start" x="27" y="-172.3" font-family="Times New Roman,serif" font-size="14.00">update</text>
<text text-anchor="start" x="27" y="-157.3" font-family="Times New Roman,serif" font-size="14.00">create</text>
<polyline fill="none" stroke="black" points="19,-149.5 145,-149.5 "/>
<polyline fill="none" stroke="black" points="19,-125.5 145,-125.5 "/>
<text text-anchor="start" x="27" y="-110.3" font-family="Times New Roman,serif" font-size="14.00">_layout_from_proc</text>
<text text-anchor="start" x="27" y="-95.3" font-family="Times New Roman,serif" font-size="14.00">result_params</text>
<text text-anchor="start" x="27" y="-80.3" font-family="Times New Roman,serif" font-size="14.00">set_result</text>
<text text-anchor="start" x="27" y="-65.3" font-family="Times New Roman,serif" font-size="14.00">_layout</text>
</g>
<!-- SessionsController -->
<g id="node13" class="node">
<title>SessionsController</title>
<path fill="none" stroke="black" d="M639,-418.5C639,-418.5 741,-418.5 741,-418.5 747,-418.5 753,-424.5 753,-430.5 753,-430.5 753,-544.5 753,-544.5 753,-550.5 747,-556.5 741,-556.5 741,-556.5 639,-556.5 639,-556.5 633,-556.5 627,-550.5 627,-544.5 627,-544.5 627,-430.5 627,-430.5 627,-424.5 633,-418.5 639,-418.5"/>
<text text-anchor="middle" x="690" y="-541.3" font-family="Times New Roman,serif" font-size="14.00">SessionsController</text>
<polyline fill="none" stroke="black" points="627,-533.5 753,-533.5 "/>
<text text-anchor="start" x="635" y="-518.3" font-family="Times New Roman,serif" font-size="14.00">destroy</text>
<text text-anchor="start" x="635" y="-503.3" font-family="Times New Roman,serif" font-size="14.00">new</text>
<text text-anchor="start" x="635" y="-488.3" font-family="Times New Roman,serif" font-size="14.00">create</text>
<polyline fill="none" stroke="black" points="627,-480.5 753,-480.5 "/>
<polyline fill="none" stroke="black" points="627,-456.5 753,-456.5 "/>
<text text-anchor="start" x="635" y="-441.3" font-family="Times New Roman,serif" font-size="14.00">_layout_from_proc</text>
<text text-anchor="start" x="635" y="-426.3" font-family="Times New Roman,serif" font-size="14.00">_layout</text>
</g>
<!-- SubmissionsController -->
<g id="node14" class="node">
<title>SubmissionsController</title>
<path fill="none" stroke="black" d="M240,-456.5C240,-456.5 360,-456.5 360,-456.5 366,-456.5 372,-462.5 372,-468.5 372,-468.5 372,-687.5 372,-687.5 372,-693.5 366,-699.5 360,-699.5 360,-699.5 240,-699.5 240,-699.5 234,-699.5 228,-693.5 228,-687.5 228,-687.5 228,-468.5 228,-468.5 228,-462.5 234,-456.5 240,-456.5"/>
<text text-anchor="middle" x="300" y="-684.3" font-family="Times New Roman,serif" font-size="14.00">SubmissionsController</text>
<polyline fill="none" stroke="black" points="228,-676.5 372,-676.5 "/>
<text text-anchor="start" x="236" y="-661.3" font-family="Times New Roman,serif" font-size="14.00">create</text>
<text text-anchor="start" x="236" y="-646.3" font-family="Times New Roman,serif" font-size="14.00">destroy</text>
<text text-anchor="start" x="236" y="-631.3" font-family="Times New Roman,serif" font-size="14.00">edit</text>
<text text-anchor="start" x="236" y="-616.3" font-family="Times New Roman,serif" font-size="14.00">index</text>
<text text-anchor="start" x="236" y="-601.3" font-family="Times New Roman,serif" font-size="14.00">new</text>
<text text-anchor="start" x="236" y="-586.3" font-family="Times New Roman,serif" font-size="14.00">show</text>
<text text-anchor="start" x="236" y="-571.3" font-family="Times New Roman,serif" font-size="14.00">update</text>
<text text-anchor="start" x="236" y="-556.3" font-family="Times New Roman,serif" font-size="14.00">calculate_score</text>
<polyline fill="none" stroke="black" points="228,-548.5 372,-548.5 "/>
<polyline fill="none" stroke="black" points="228,-524.5 372,-524.5 "/>
<text text-anchor="start" x="236" y="-509.3" font-family="Times New Roman,serif" font-size="14.00">_layout_from_proc</text>
<text text-anchor="start" x="236" y="-494.3" font-family="Times New Roman,serif" font-size="14.00">set_submission</text>
<text text-anchor="start" x="236" y="-479.3" font-family="Times New Roman,serif" font-size="14.00">submission_params</text>
<text text-anchor="start" x="236" y="-464.3" font-family="Times New Roman,serif" font-size="14.00">_layout</text>
</g>
</g>
</svg>
