<?xml version="1.0" encoding="UTF-8" standalone="no"?>
<!DOCTYPE svg PUBLIC "-//W3C//DTD SVG 1.1//EN"
 "http://www.w3.org/Graphics/SVG/1.1/DTD/svg11.dtd">
<!-- Generated by graphviz version 5.0.0 (20220707.1540)
 -->
<!-- Title: models_diagram Pages: 1 -->
<svg width="947pt" height="406pt"
 viewBox="0.00 0.00 946.84 406.00" xmlns="http://www.w3.org/2000/svg" xmlns:xlink="http://www.w3.org/1999/xlink">
<g id="graph0" class="graph" transform="scale(1 1) rotate(0) translate(4 402)">
<title>models_diagram</title>
<polygon fill="transparent" stroke="transparent" points="-4,4 -4,-402 942.84,-402 942.84,4 -4,4"/>
<!-- _diagram_info -->
<g id="node1" class="node">
<title>_diagram_info</title>
<text text-anchor="start" x="115.4" y="-383.6" font-family="Times New Roman,serif" font-size="13.00">Models diagram</text>
<text text-anchor="start" x="115.4" y="-369.6" font-family="Times New Roman,serif" font-size="13.00">Date: Jul 30 2022 &#45; 18:26</text>
<text text-anchor="start" x="115.4" y="-355.6" font-family="Times New Roman,serif" font-size="13.00">Migration version: 20220725013815</text>
<text text-anchor="start" x="115.4" y="-341.6" font-family="Times New Roman,serif" font-size="13.00">Generated by RailRoady 1.6.0</text>
<text text-anchor="start" x="115.4" y="-327.6" font-family="Times New Roman,serif" font-size="13.00">http://railroady.prestonlee.com</text>
</g>
<!-- Admin::Answer -->
<g id="node2" class="node">
<title>Admin::Answer</title>
<ellipse fill="none" stroke="black" cx="185.9" cy="-178" rx="66.89" ry="18"/>
<text text-anchor="middle" x="185.9" y="-174.3" font-family="Times New Roman,serif" font-size="14.00">Admin::Answer</text>
</g>
<!-- Admin::Question -->
<g id="node4" class="node">
<title>Admin::Question</title>
<ellipse fill="none" stroke="black" cx="236.9" cy="-105" rx="71.49" ry="18"/>
<text text-anchor="middle" x="236.9" y="-101.3" font-family="Times New Roman,serif" font-size="14.00">Admin::Question</text>
</g>
<!-- Admin::Answer&#45;&gt;Admin::Question -->
<g id="edge1" class="edge">
<title>Admin::Answer&#45;&gt;Admin::Question</title>
<path fill="none" stroke="#9d969c" d="M203.96,-151.85C208.64,-145.33 213.7,-138.3 218.4,-131.74"/>
<polygon fill="#9d969c" stroke="#9d969c" points="203.82,-152.05 194.33,-157.55 200.9,-156.11 197.98,-160.17 197.98,-160.17 197.98,-160.17 200.9,-156.11 201.64,-162.8 203.82,-152.05 203.82,-152.05"/>
<polygon fill="#9d969c" stroke="#9d969c" points="218.71,-131.32 228.2,-125.82 221.62,-127.26 224.54,-123.2 224.54,-123.2 224.54,-123.2 221.62,-127.26 220.89,-120.57 218.71,-131.32 218.71,-131.32"/>
</g>
<!-- Admin::Course -->
<g id="node3" class="node">
<title>Admin::Course</title>
<ellipse fill="none" stroke="black" cx="532.9" cy="-359" rx="65.79" ry="18"/>
<text text-anchor="middle" x="532.9" y="-355.3" font-family="Times New Roman,serif" font-size="14.00">Admin::Course</text>
</g>
<!-- Admin::User -->
<g id="node11" class="node">
<title>Admin::User</title>
<ellipse fill="none" stroke="black" cx="532.9" cy="-265" rx="55.79" ry="18"/>
<text text-anchor="middle" x="532.9" y="-261.3" font-family="Times New Roman,serif" font-size="14.00">Admin::User</text>
</g>
<!-- Admin::Course&#45;&gt;Admin::User -->
<g id="edge2" class="edge">
<title>Admin::Course&#45;&gt;Admin::User</title>
<path fill="none" stroke="#29de6f" d="M532.9,-330.69C532.9,-318.92 532.9,-305.17 532.9,-293.39"/>
<polygon fill="#29de6f" stroke="#29de6f" points="532.9,-330.7 528.4,-340.7 532.9,-335.7 532.9,-340.7 532.9,-340.7 532.9,-340.7 532.9,-335.7 537.4,-340.7 532.9,-330.7 532.9,-330.7"/>
<polygon fill="#29de6f" stroke="#29de6f" points="532.9,-293.23 537.4,-283.23 532.9,-288.23 532.9,-283.23 532.9,-283.23 532.9,-283.23 532.9,-288.23 528.4,-283.23 532.9,-293.23 532.9,-293.23"/>
</g>
<!-- Admin::Quiz -->
<g id="node12" class="node">
<title>Admin::Quiz</title>
<ellipse fill="none" stroke="black" cx="55.9" cy="-18" rx="55.79" ry="18"/>
<text text-anchor="middle" x="55.9" y="-14.3" font-family="Times New Roman,serif" font-size="14.00">Admin::Quiz</text>
</g>
<!-- Admin::Question&#45;&gt;Admin::Quiz -->
<g id="edge3" class="edge">
<title>Admin::Question&#45;&gt;Admin::Quiz</title>
<path fill="none" stroke="#8aa573" d="M195.07,-84.36C165.03,-70.25 124.81,-51.36 95.33,-37.52"/>
<polygon fill="#8aa573" stroke="#8aa573" points="195.48,-84.55 202.62,-92.88 200.01,-86.68 204.54,-88.8 204.54,-88.8 204.54,-88.8 200.01,-86.68 206.45,-84.73 195.48,-84.55 195.48,-84.55"/>
<polygon fill="#8aa573" stroke="#8aa573" points="95.22,-37.47 88.08,-29.14 90.69,-35.34 86.17,-33.22 86.17,-33.22 86.17,-33.22 90.69,-35.34 84.26,-37.29 95.22,-37.47 95.22,-37.47"/>
</g>
<!-- ActiveStorage::Attachment -->
<g id="node13" class="node">
<title>ActiveStorage::Attachment</title>
<ellipse fill="none" stroke="black" cx="236.9" cy="-18" rx="107.48" ry="18"/>
<text text-anchor="middle" x="236.9" y="-14.3" font-family="Times New Roman,serif" font-size="14.00">ActiveStorage::Attachment</text>
</g>
<!-- Admin::Question&#45;&gt;ActiveStorage::Attachment -->
<g id="edge4" class="edge">
<title>Admin::Question&#45;&gt;ActiveStorage::Attachment</title>
<path fill="none" stroke="#4a3e23" d="M236.9,-76.73C236.9,-67.06 236.9,-56.17 236.9,-46.48"/>
<polygon fill="#4a3e23" stroke="#4a3e23" points="236.9,-76.8 232.4,-86.8 236.9,-81.8 236.9,-86.8 236.9,-86.8 236.9,-86.8 236.9,-81.8 241.4,-86.8 236.9,-76.8 236.9,-76.8"/>
<polygon fill="#4a3e23" stroke="#4a3e23" points="236.9,-46.18 241.4,-36.18 236.9,-41.18 236.9,-36.18 236.9,-36.18 236.9,-36.18 236.9,-41.18 232.4,-36.18 236.9,-46.18 236.9,-46.18"/>
<text text-anchor="middle" x="314.4" y="-57.8" font-family="Times New Roman,serif" font-size="14.00">question_image_attachment</text>
</g>
<!-- ActiveStorage::Blob -->
<g id="node14" class="node">
<title>ActiveStorage::Blob</title>
<ellipse fill="none" stroke="black" cx="444.9" cy="-18" rx="83.39" ry="18"/>
<text text-anchor="middle" x="444.9" y="-14.3" font-family="Times New Roman,serif" font-size="14.00">ActiveStorage::Blob</text>
</g>
<!-- Admin::Question&#45;&gt;ActiveStorage::Blob -->
<g id="edge5" class="edge">
<title>Admin::Question&#45;&gt;ActiveStorage::Blob</title>
<path fill="none" stroke="#f96ef4" d="M312.93,-96.41C340.33,-91.37 370.68,-82.97 395.9,-69 407.24,-62.71 417.64,-52.98 425.92,-43.76"/>
<polygon fill="#f96ef4" stroke="#f96ef4" points="312.84,-96.43 302.22,-93.69 307.91,-97.27 302.98,-98.12 302.98,-98.12 302.98,-98.12 307.91,-97.27 303.74,-102.56 312.84,-96.43 312.84,-96.43"/>
<polygon fill="#f96ef4" stroke="#f96ef4" points="426.13,-43.51 436.04,-38.81 429.37,-39.7 432.61,-35.89 432.61,-35.89 432.61,-35.89 429.37,-39.7 429.18,-32.98 426.13,-43.51 426.13,-43.51"/>
<text text-anchor="middle" x="476.4" y="-57.8" font-family="Times New Roman,serif" font-size="14.00">question_image_blob</text>
</g>
<!-- Admin::Semester -->
<g id="node5" class="node">
<title>Admin::Semester</title>
<ellipse fill="none" stroke="black" cx="688.9" cy="-359" rx="72.29" ry="18"/>
<text text-anchor="middle" x="688.9" y="-355.3" font-family="Times New Roman,serif" font-size="14.00">Admin::Semester</text>
</g>
<!-- ApplicationRecord -->
<g id="node6" class="node">
<title>ApplicationRecord</title>
<ellipse fill="none" stroke="black" cx="858.9" cy="-359" rx="79.89" ry="18"/>
<text text-anchor="middle" x="858.9" y="-355.3" font-family="Times New Roman,serif" font-size="14.00">ApplicationRecord</text>
</g>
<!-- Quiz -->
<g id="node7" class="node">
<title>Quiz</title>
<ellipse fill="none" stroke="black" cx="268.9" cy="-265" rx="27.9" ry="18"/>
<text text-anchor="middle" x="268.9" y="-261.3" font-family="Times New Roman,serif" font-size="14.00">Quiz</text>
</g>
<!-- Quiz&#45;&gt;Admin::Answer -->
<g id="edge7" class="edge">
<title>Quiz&#45;&gt;Admin::Answer</title>
<path fill="none" stroke="#a3e36c" d="M244.17,-243.34C239,-238.75 233.67,-233.82 228.9,-229 221.04,-221.07 212.93,-211.93 205.9,-203.65"/>
<polygon fill="#a3e36c" stroke="#a3e36c" points="244.52,-243.64 249.12,-253.6 248.3,-246.92 252.07,-250.2 252.07,-250.2 252.07,-250.2 248.3,-246.92 255.02,-246.8 244.52,-243.64 244.52,-243.64"/>
<polygon fill="#a3e36c" stroke="#a3e36c" points="205.69,-203.4 202.73,-192.85 202.48,-199.57 199.28,-195.73 199.28,-195.73 199.28,-195.73 202.48,-199.57 195.82,-198.62 205.69,-203.4 205.69,-203.4"/>
<text text-anchor="middle" x="251.9" y="-217.8" font-family="Times New Roman,serif" font-size="14.00">answers</text>
</g>
<!-- Quiz&#45;&gt;Admin::Question -->
<g id="edge6" class="edge">
<title>Quiz&#45;&gt;Admin::Question</title>
<path fill="none" stroke="#d95b89" d="M274.5,-236.92C275.4,-229.49 275.78,-221.44 274.9,-214 271.99,-189.49 270.01,-183.31 261.9,-160 258.69,-150.78 254.44,-141.02 250.37,-132.36"/>
<polygon fill="#d95b89" stroke="#d95b89" points="274.49,-236.99 268.52,-246.19 273.73,-241.94 272.97,-246.88 272.97,-246.88 272.97,-246.88 273.73,-241.94 277.42,-247.56 274.49,-236.99 274.49,-236.99"/>
<polygon fill="#d95b89" stroke="#d95b89" points="250.26,-132.15 249.94,-121.18 248.08,-127.65 245.89,-123.15 245.89,-123.15 245.89,-123.15 248.08,-127.65 241.85,-125.11 250.26,-132.15 250.26,-132.15"/>
<text text-anchor="middle" x="299.9" y="-174.3" font-family="Times New Roman,serif" font-size="14.00">questions</text>
</g>
<!-- Result -->
<g id="node8" class="node">
<title>Result</title>
<ellipse fill="none" stroke="black" cx="367.9" cy="-359" rx="33.6" ry="18"/>
<text text-anchor="middle" x="367.9" y="-355.3" font-family="Times New Roman,serif" font-size="14.00">Result</text>
</g>
<!-- Result&#45;&gt;Quiz -->
<g id="edge8" class="edge">
<title>Result&#45;&gt;Quiz</title>
<path fill="none" stroke="#4286ef" d="M344.05,-335.84C328.24,-321.15 307.61,-301.98 291.96,-287.44"/>
<polygon fill="#4286ef" stroke="#4286ef" points="344.22,-336 348.48,-346.1 347.88,-339.4 351.55,-342.81 351.55,-342.81 351.55,-342.81 347.88,-339.4 354.61,-339.51 344.22,-336 344.22,-336"/>
<polygon fill="#4286ef" stroke="#4286ef" points="291.61,-287.11 287.35,-277.01 287.95,-283.71 284.29,-280.31 284.29,-280.31 284.29,-280.31 287.95,-283.71 281.23,-283.6 291.61,-287.11 291.61,-287.11"/>
</g>
<!-- Submission -->
<g id="node9" class="node">
<title>Submission</title>
<ellipse fill="none" stroke="black" cx="367.9" cy="-265" rx="53.09" ry="18"/>
<text text-anchor="middle" x="367.9" y="-261.3" font-family="Times New Roman,serif" font-size="14.00">Submission</text>
</g>
<!-- Result&#45;&gt;Submission -->
<g id="edge10" class="edge">
<title>Result&#45;&gt;Submission</title>
<path fill="none" stroke="#ae0bae" d="M367.9,-330.69C367.9,-318.92 367.9,-305.17 367.9,-293.39"/>
<polygon fill="#ae0bae" stroke="#ae0bae" points="367.9,-330.7 363.4,-340.7 367.9,-335.7 367.9,-340.7 367.9,-340.7 367.9,-340.7 367.9,-335.7 372.4,-340.7 367.9,-330.7 367.9,-330.7"/>
<polygon fill="#ae0bae" stroke="#ae0bae" points="367.9,-293.23 372.4,-283.23 367.9,-288.23 367.9,-283.23 367.9,-283.23 367.9,-283.23 367.9,-288.23 363.4,-283.23 367.9,-293.23 367.9,-293.23"/>
</g>
<!-- User -->
<g id="node10" class="node">
<title>User</title>
<ellipse fill="none" stroke="black" cx="428.9" cy="-178" rx="27.9" ry="18"/>
<text text-anchor="middle" x="428.9" y="-174.3" font-family="Times New Roman,serif" font-size="14.00">User</text>
</g>
<!-- Result&#45;&gt;User -->
<g id="edge9" class="edge">
<title>Result&#45;&gt;User</title>
<path fill="none" stroke="#280466" d="M392.78,-336.38C406.6,-322.66 422.46,-303.66 429.9,-283 438.84,-258.15 437.23,-227.74 434.22,-206.24"/>
<polygon fill="#280466" stroke="#280466" points="392.62,-336.53 382.28,-340.17 389,-339.98 385.38,-343.43 385.38,-343.43 385.38,-343.43 389,-339.98 388.49,-346.69 392.62,-336.53 392.62,-336.53"/>
<polygon fill="#280466" stroke="#280466" points="434.19,-206.05 437.05,-195.46 433.4,-201.11 432.61,-196.17 432.61,-196.17 432.61,-196.17 433.4,-201.11 428.17,-196.88 434.19,-206.05 434.19,-206.05"/>
</g>
<!-- Submission&#45;&gt;User -->
<g id="edge11" class="edge">
<title>Submission&#45;&gt;User</title>
<path fill="none" stroke="#e67946" d="M386,-238.77C394.12,-227.46 403.64,-214.19 411.65,-203.03"/>
<polygon fill="#e67946" stroke="#e67946" points="385.78,-239.08 376.29,-244.58 382.86,-243.14 379.95,-247.21 379.95,-247.21 379.95,-247.21 382.86,-243.14 383.6,-249.83 385.78,-239.08 385.78,-239.08"/>
<polygon fill="#e67946" stroke="#e67946" points="411.86,-202.74 421.35,-197.24 414.78,-198.67 417.69,-194.61 417.69,-194.61 417.69,-194.61 414.78,-198.67 414.04,-191.99 411.86,-202.74 411.86,-202.74"/>
</g>
</g>
</svg>
