<?xml version="1.0" encoding="UTF-8" standalone="no"?>
<!DOCTYPE svg PUBLIC "-//W3C//DTD SVG 1.1//EN"
 "http://www.w3.org/Graphics/SVG/1.1/DTD/svg11.dtd">
<!-- Generated by graphviz version 5.0.0 (20220707.1540)
 -->
<!-- Title: models_diagram Pages: 1 -->
<svg width="1428pt" height="948pt"
 viewBox="0.00 0.00 1427.84 948.00" xmlns="http://www.w3.org/2000/svg" xmlns:xlink="http://www.w3.org/1999/xlink">
<g id="graph0" class="graph" transform="scale(1 1) rotate(0) translate(4 944)">
<title>models_diagram</title>
<polygon fill="transparent" stroke="transparent" points="-4,4 -4,-944 1423.84,-944 1423.84,4 -4,4"/>
<!-- _diagram_info -->
<g id="node1" class="node">
<title>_diagram_info</title>
<text text-anchor="start" x="206.4" y="-896.1" font-family="Times New Roman,serif" font-size="13.00">Models diagram</text>
<text text-anchor="start" x="206.4" y="-882.1" font-family="Times New Roman,serif" font-size="13.00">Date: Jul 30 2022 &#45; 18:25</text>
<text text-anchor="start" x="206.4" y="-868.1" font-family="Times New Roman,serif" font-size="13.00">Migration version: 20220725013815</text>
<text text-anchor="start" x="206.4" y="-854.1" font-family="Times New Roman,serif" font-size="13.00">Generated by RailRoady 1.6.0</text>
<text text-anchor="start" x="206.4" y="-840.1" font-family="Times New Roman,serif" font-size="13.00">http://railroady.prestonlee.com</text>
</g>
<!-- Admin::Answer -->
<g id="node2" class="node">
<title>Admin::Answer</title>
<path fill="none" stroke="black" d="M35.9,-359C35.9,-359 271.9,-359 271.9,-359 277.9,-359 283.9,-365 283.9,-371 283.9,-371 283.9,-468 283.9,-468 283.9,-474 277.9,-480 271.9,-480 271.9,-480 35.9,-480 35.9,-480 29.9,-480 23.9,-474 23.9,-468 23.9,-468 23.9,-371 23.9,-371 23.9,-365 29.9,-359 35.9,-359"/>
<text text-anchor="middle" x="153.9" y="-464.8" font-family="Times New Roman,serif" font-size="14.00">Admin::Answer</text>
<polyline fill="none" stroke="black" points="23.9,-457 283.9,-457 "/>
<text text-anchor="start" x="31.9" y="-441.8" font-family="Times New Roman,serif" font-size="14.00">answer_text :character varying</text>
<text text-anchor="start" x="31.9" y="-426.8" font-family="Times New Roman,serif" font-size="14.00">is_correct :boolean</text>
<text text-anchor="start" x="31.9" y="-411.8" font-family="Times New Roman,serif" font-size="14.00">created_at :timestamp(6) without time zone</text>
<text text-anchor="start" x="31.9" y="-396.8" font-family="Times New Roman,serif" font-size="14.00">updated_at :timestamp(6) without time zone</text>
<text text-anchor="start" x="31.9" y="-381.8" font-family="Times New Roman,serif" font-size="14.00">question_id :bigint</text>
<text text-anchor="start" x="31.9" y="-366.8" font-family="Times New Roman,serif" font-size="14.00">id :bigint</text>
</g>
<!-- Admin::Question -->
<g id="node4" class="node">
<title>Admin::Question</title>
<path fill="none" stroke="black" d="M118.9,-87.5C118.9,-87.5 354.9,-87.5 354.9,-87.5 360.9,-87.5 366.9,-93.5 366.9,-99.5 366.9,-99.5 366.9,-226.5 366.9,-226.5 366.9,-232.5 360.9,-238.5 354.9,-238.5 354.9,-238.5 118.9,-238.5 118.9,-238.5 112.9,-238.5 106.9,-232.5 106.9,-226.5 106.9,-226.5 106.9,-99.5 106.9,-99.5 106.9,-93.5 112.9,-87.5 118.9,-87.5"/>
<text text-anchor="middle" x="236.9" y="-223.3" font-family="Times New Roman,serif" font-size="14.00">Admin::Question</text>
<polyline fill="none" stroke="black" points="106.9,-215.5 366.9,-215.5 "/>
<text text-anchor="start" x="114.9" y="-200.3" font-family="Times New Roman,serif" font-size="14.00">situation :character varying</text>
<text text-anchor="start" x="114.9" y="-185.3" font-family="Times New Roman,serif" font-size="14.00">description :character varying</text>
<text text-anchor="start" x="114.9" y="-170.3" font-family="Times New Roman,serif" font-size="14.00">created_at :timestamp(6) without time zone</text>
<text text-anchor="start" x="114.9" y="-155.3" font-family="Times New Roman,serif" font-size="14.00">updated_at :timestamp(6) without time zone</text>
<text text-anchor="start" x="114.9" y="-140.3" font-family="Times New Roman,serif" font-size="14.00">quiz_id :bigint</text>
<text text-anchor="start" x="114.9" y="-125.3" font-family="Times New Roman,serif" font-size="14.00">category :character varying</text>
<text text-anchor="start" x="114.9" y="-110.3" font-family="Times New Roman,serif" font-size="14.00">time_elapsed :character varying</text>
<text text-anchor="start" x="114.9" y="-95.3" font-family="Times New Roman,serif" font-size="14.00">id :bigint</text>
</g>
<!-- Admin::Answer&#45;&gt;Admin::Question -->
<g id="edge1" class="edge">
<title>Admin::Answer&#45;&gt;Admin::Question</title>
<path fill="none" stroke="#e1f758" d="M176.58,-348.94C186.72,-317.86 198.75,-280.96 209.39,-248.32"/>
<polygon fill="#e1f758" stroke="#e1f758" points="176.46,-349.32 169.08,-357.44 174.91,-354.08 173.35,-358.83 173.35,-358.83 173.35,-358.83 174.91,-354.08 177.63,-360.23 176.46,-349.32 176.46,-349.32"/>
<polygon fill="#e1f758" stroke="#e1f758" points="209.4,-248.3 216.78,-240.19 210.95,-243.55 212.5,-238.79 212.5,-238.79 212.5,-238.79 210.95,-243.55 208.22,-237.4 209.4,-248.3 209.4,-248.3"/>
</g>
<!-- Admin::Course -->
<g id="node3" class="node">
<title>Admin::Course</title>
<path fill="none" stroke="black" d="M715.9,-826C715.9,-826 951.9,-826 951.9,-826 957.9,-826 963.9,-832 963.9,-838 963.9,-838 963.9,-905 963.9,-905 963.9,-911 957.9,-917 951.9,-917 951.9,-917 715.9,-917 715.9,-917 709.9,-917 703.9,-911 703.9,-905 703.9,-905 703.9,-838 703.9,-838 703.9,-832 709.9,-826 715.9,-826"/>
<text text-anchor="middle" x="833.9" y="-901.8" font-family="Times New Roman,serif" font-size="14.00">Admin::Course</text>
<polyline fill="none" stroke="black" points="703.9,-894 963.9,-894 "/>
<text text-anchor="start" x="711.9" y="-878.8" font-family="Times New Roman,serif" font-size="14.00">name :character varying</text>
<text text-anchor="start" x="711.9" y="-863.8" font-family="Times New Roman,serif" font-size="14.00">created_at :timestamp(6) without time zone</text>
<text text-anchor="start" x="711.9" y="-848.8" font-family="Times New Roman,serif" font-size="14.00">updated_at :timestamp(6) without time zone</text>
<text text-anchor="start" x="711.9" y="-833.8" font-family="Times New Roman,serif" font-size="14.00">id :bigint</text>
</g>
<!-- Admin::User -->
<g id="node11" class="node">
<title>Admin::User</title>
<ellipse fill="none" stroke="black" cx="833.9" cy="-690" rx="55.79" ry="18"/>
<text text-anchor="middle" x="833.9" y="-686.3" font-family="Times New Roman,serif" font-size="14.00">Admin::User</text>
</g>
<!-- Admin::Course&#45;&gt;Admin::User -->
<g id="edge2" class="edge">
<title>Admin::Course&#45;&gt;Admin::User</title>
<path fill="none" stroke="#c10ef8" d="M833.9,-815.57C833.9,-783.42 833.9,-744.22 833.9,-718.48"/>
<polygon fill="#c10ef8" stroke="#c10ef8" points="833.9,-815.67 829.4,-825.67 833.9,-820.67 833.9,-825.67 833.9,-825.67 833.9,-825.67 833.9,-820.67 838.4,-825.67 833.9,-815.67 833.9,-815.67"/>
<polygon fill="#c10ef8" stroke="#c10ef8" points="833.9,-718.33 838.4,-708.33 833.9,-713.33 833.9,-708.33 833.9,-708.33 833.9,-708.33 833.9,-713.33 829.4,-708.33 833.9,-718.33 833.9,-718.33"/>
</g>
<!-- Admin::Quiz -->
<g id="node12" class="node">
<title>Admin::Quiz</title>
<ellipse fill="none" stroke="black" cx="55.9" cy="-18" rx="55.79" ry="18"/>
<text text-anchor="middle" x="55.9" y="-14.3" font-family="Times New Roman,serif" font-size="14.00">Admin::Quiz</text>
</g>
<!-- Admin::Question&#45;&gt;Admin::Quiz -->
<g id="edge3" class="edge">
<title>Admin::Question&#45;&gt;Admin::Quiz</title>
<path fill="none" stroke="#941382" d="M134.52,-81.12C116.11,-66.57 98.36,-52.55 84.4,-41.52"/>
<polygon fill="#941382" stroke="#941382" points="134.57,-81.16 139.63,-90.89 138.5,-84.26 142.42,-87.36 142.42,-87.36 142.42,-87.36 138.5,-84.26 145.21,-83.83 134.57,-81.16 134.57,-81.16"/>
<polygon fill="#941382" stroke="#941382" points="84.07,-41.26 79.02,-31.53 80.15,-38.16 76.23,-35.06 76.23,-35.06 76.23,-35.06 80.15,-38.16 73.44,-38.6 84.07,-41.26 84.07,-41.26"/>
</g>
<!-- ActiveStorage::Attachment -->
<g id="node13" class="node">
<title>ActiveStorage::Attachment</title>
<ellipse fill="none" stroke="black" cx="236.9" cy="-18" rx="107.48" ry="18"/>
<text text-anchor="middle" x="236.9" y="-14.3" font-family="Times New Roman,serif" font-size="14.00">ActiveStorage::Attachment</text>
</g>
<!-- Admin::Question&#45;&gt;ActiveStorage::Attachment -->
<g id="edge4" class="edge">
<title>Admin::Question&#45;&gt;ActiveStorage::Attachment</title>
<path fill="none" stroke="#53f3b3" d="M236.9,-76.87C236.9,-65.85 236.9,-55.28 236.9,-46.25"/>
<polygon fill="#53f3b3" stroke="#53f3b3" points="236.9,-77.15 232.4,-87.15 236.9,-82.15 236.9,-87.15 236.9,-87.15 236.9,-87.15 236.9,-82.15 241.4,-87.15 236.9,-77.15 236.9,-77.15"/>
<polygon fill="#53f3b3" stroke="#53f3b3" points="236.9,-46.09 241.4,-36.09 236.9,-41.09 236.9,-36.09 236.9,-36.09 236.9,-36.09 236.9,-41.09 232.4,-36.09 236.9,-46.09 236.9,-46.09"/>
<text text-anchor="middle" x="314.4" y="-57.8" font-family="Times New Roman,serif" font-size="14.00">question_image_attachment</text>
</g>
<!-- ActiveStorage::Blob -->
<g id="node14" class="node">
<title>ActiveStorage::Blob</title>
<ellipse fill="none" stroke="black" cx="444.9" cy="-18" rx="83.39" ry="18"/>
<text text-anchor="middle" x="444.9" y="-14.3" font-family="Times New Roman,serif" font-size="14.00">ActiveStorage::Blob</text>
</g>
<!-- Admin::Question&#45;&gt;ActiveStorage::Blob -->
<g id="edge5" class="edge">
<title>Admin::Question&#45;&gt;ActiveStorage::Blob</title>
<path fill="none" stroke="#d28bd7" d="M375.53,-83.99C382.54,-79.1 389.37,-74.09 395.9,-69 405.58,-61.45 415.26,-52.06 423.42,-43.47"/>
<polygon fill="#d28bd7" stroke="#d28bd7" points="375.48,-84.03 364.69,-85.98 371.36,-86.86 367.23,-89.69 367.23,-89.69 367.23,-89.69 371.36,-86.86 369.78,-93.4 375.48,-84.03 375.48,-84.03"/>
<polygon fill="#d28bd7" stroke="#d28bd7" points="423.65,-43.22 433.75,-38.94 427.05,-39.55 430.45,-35.88 430.45,-35.88 430.45,-35.88 427.05,-39.55 427.15,-32.83 423.65,-43.22 423.65,-43.22"/>
<text text-anchor="middle" x="472.4" y="-57.8" font-family="Times New Roman,serif" font-size="14.00">question_image_blob</text>
</g>
<!-- Admin::Semester -->
<g id="node5" class="node">
<title>Admin::Semester</title>
<path fill="none" stroke="black" d="M993.9,-803.5C993.9,-803.5 1229.9,-803.5 1229.9,-803.5 1235.9,-803.5 1241.9,-809.5 1241.9,-815.5 1241.9,-815.5 1241.9,-927.5 1241.9,-927.5 1241.9,-933.5 1235.9,-939.5 1229.9,-939.5 1229.9,-939.5 993.9,-939.5 993.9,-939.5 987.9,-939.5 981.9,-933.5 981.9,-927.5 981.9,-927.5 981.9,-815.5 981.9,-815.5 981.9,-809.5 987.9,-803.5 993.9,-803.5"/>
<text text-anchor="middle" x="1111.9" y="-924.3" font-family="Times New Roman,serif" font-size="14.00">Admin::Semester</text>
<polyline fill="none" stroke="black" points="981.9,-916.5 1241.9,-916.5 "/>
<text text-anchor="start" x="989.9" y="-901.3" font-family="Times New Roman,serif" font-size="14.00">name :character varying</text>
<text text-anchor="start" x="989.9" y="-886.3" font-family="Times New Roman,serif" font-size="14.00">start_date :date</text>
<text text-anchor="start" x="989.9" y="-871.3" font-family="Times New Roman,serif" font-size="14.00">end_date :date</text>
<text text-anchor="start" x="989.9" y="-856.3" font-family="Times New Roman,serif" font-size="14.00">year :character varying</text>
<text text-anchor="start" x="989.9" y="-841.3" font-family="Times New Roman,serif" font-size="14.00">created_at :timestamp(6) without time zone</text>
<text text-anchor="start" x="989.9" y="-826.3" font-family="Times New Roman,serif" font-size="14.00">updated_at :timestamp(6) without time zone</text>
<text text-anchor="start" x="989.9" y="-811.3" font-family="Times New Roman,serif" font-size="14.00">id :bigint</text>
</g>
<!-- ApplicationRecord -->
<g id="node6" class="node">
<title>ApplicationRecord</title>
<ellipse fill="none" stroke="black" cx="1339.9" cy="-871.5" rx="79.89" ry="18"/>
<text text-anchor="middle" x="1339.9" y="-867.8" font-family="Times New Roman,serif" font-size="14.00">ApplicationRecord</text>
</g>
<!-- Quiz -->
<g id="node7" class="node">
<title>Quiz</title>
<path fill="none" stroke="black" d="M159.9,-644.5C159.9,-644.5 395.9,-644.5 395.9,-644.5 401.9,-644.5 407.9,-650.5 407.9,-656.5 407.9,-656.5 407.9,-723.5 407.9,-723.5 407.9,-729.5 401.9,-735.5 395.9,-735.5 395.9,-735.5 159.9,-735.5 159.9,-735.5 153.9,-735.5 147.9,-729.5 147.9,-723.5 147.9,-723.5 147.9,-656.5 147.9,-656.5 147.9,-650.5 153.9,-644.5 159.9,-644.5"/>
<text text-anchor="middle" x="277.9" y="-720.3" font-family="Times New Roman,serif" font-size="14.00">Quiz</text>
<polyline fill="none" stroke="black" points="147.9,-712.5 407.9,-712.5 "/>
<text text-anchor="start" x="155.9" y="-697.3" font-family="Times New Roman,serif" font-size="14.00">description :character varying</text>
<text text-anchor="start" x="155.9" y="-682.3" font-family="Times New Roman,serif" font-size="14.00">created_at :timestamp(6) without time zone</text>
<text text-anchor="start" x="155.9" y="-667.3" font-family="Times New Roman,serif" font-size="14.00">updated_at :timestamp(6) without time zone</text>
<text text-anchor="start" x="155.9" y="-652.3" font-family="Times New Roman,serif" font-size="14.00">id :bigint</text>
</g>
<!-- Quiz&#45;&gt;Admin::Answer -->
<g id="edge7" class="edge">
<title>Quiz&#45;&gt;Admin::Answer</title>
<path fill="none" stroke="#f61d6f" d="M253.01,-635.11C233.66,-593.22 206.69,-534.82 185.77,-489.52"/>
<polygon fill="#f61d6f" stroke="#f61d6f" points="253.09,-635.28 253.19,-646.25 255.18,-639.82 257.28,-644.36 257.28,-644.36 257.28,-644.36 255.18,-639.82 261.37,-642.47 253.09,-635.28 253.09,-635.28"/>
<polygon fill="#f61d6f" stroke="#f61d6f" points="185.73,-489.43 185.62,-478.47 183.63,-484.89 181.54,-480.35 181.54,-480.35 181.54,-480.35 183.63,-484.89 177.45,-482.24 185.73,-489.43 185.73,-489.43"/>
<text text-anchor="middle" x="257.9" y="-584.8" font-family="Times New Roman,serif" font-size="14.00">answers</text>
</g>
<!-- Quiz&#45;&gt;Admin::Question -->
<g id="edge6" class="edge">
<title>Quiz&#45;&gt;Admin::Question</title>
<path fill="none" stroke="#785902" d="M288.97,-634.39C303.14,-554.49 322.54,-401.56 292.9,-276 290.71,-266.74 287.63,-257.36 284.03,-248.19"/>
<polygon fill="#785902" stroke="#785902" points="288.97,-634.4 282.75,-643.43 288.07,-639.32 287.18,-644.24 287.18,-644.24 287.18,-644.24 288.07,-639.32 291.61,-645.04 288.97,-634.4 288.97,-634.4"/>
<polygon fill="#785902" stroke="#785902" points="283.93,-247.96 284.26,-237 282.02,-243.34 280.11,-238.72 280.11,-238.72 280.11,-238.72 282.02,-243.34 275.95,-240.44 283.93,-247.96 283.93,-247.96"/>
<text text-anchor="middle" x="335.9" y="-415.8" font-family="Times New Roman,serif" font-size="14.00">questions</text>
</g>
<!-- Result -->
<g id="node8" class="node">
<title>Result</title>
<path fill="none" stroke="black" d="M437.9,-811C437.9,-811 673.9,-811 673.9,-811 679.9,-811 685.9,-817 685.9,-823 685.9,-823 685.9,-920 685.9,-920 685.9,-926 679.9,-932 673.9,-932 673.9,-932 437.9,-932 437.9,-932 431.9,-932 425.9,-926 425.9,-920 425.9,-920 425.9,-823 425.9,-823 425.9,-817 431.9,-811 437.9,-811"/>
<text text-anchor="middle" x="555.9" y="-916.8" font-family="Times New Roman,serif" font-size="14.00">Result</text>
<polyline fill="none" stroke="black" points="425.9,-909 685.9,-909 "/>
<text text-anchor="start" x="433.9" y="-893.8" font-family="Times New Roman,serif" font-size="14.00">score :integer</text>
<text text-anchor="start" x="433.9" y="-878.8" font-family="Times New Roman,serif" font-size="14.00">created_at :timestamp(6) without time zone</text>
<text text-anchor="start" x="433.9" y="-863.8" font-family="Times New Roman,serif" font-size="14.00">updated_at :timestamp(6) without time zone</text>
<text text-anchor="start" x="433.9" y="-848.8" font-family="Times New Roman,serif" font-size="14.00">quiz_id :bigint</text>
<text text-anchor="start" x="433.9" y="-833.8" font-family="Times New Roman,serif" font-size="14.00">user_id :bigint</text>
<text text-anchor="start" x="433.9" y="-818.8" font-family="Times New Roman,serif" font-size="14.00">id :bigint</text>
</g>
<!-- Result&#45;&gt;Quiz -->
<g id="edge8" class="edge">
<title>Result&#45;&gt;Quiz</title>
<path fill="none" stroke="#b60ccb" d="M455.15,-805.45C422.31,-784.25 386.38,-761.05 355.51,-741.12"/>
<polygon fill="#b60ccb" stroke="#b60ccb" points="455.31,-805.55 461.27,-814.76 459.51,-808.27 463.71,-810.98 463.71,-810.98 463.71,-810.98 459.51,-808.27 466.15,-807.2 455.31,-805.55 455.31,-805.55"/>
<polygon fill="#b60ccb" stroke="#b60ccb" points="355.35,-741.01 349.39,-731.8 351.15,-738.3 346.95,-735.58 346.95,-735.58 346.95,-735.58 351.15,-738.3 344.5,-739.37 355.35,-741.01 355.35,-741.01"/>
</g>
<!-- Submission -->
<g id="node9" class="node">
<title>Submission</title>
<path fill="none" stroke="black" d="M437.9,-614.5C437.9,-614.5 673.9,-614.5 673.9,-614.5 679.9,-614.5 685.9,-620.5 685.9,-626.5 685.9,-626.5 685.9,-753.5 685.9,-753.5 685.9,-759.5 679.9,-765.5 673.9,-765.5 673.9,-765.5 437.9,-765.5 437.9,-765.5 431.9,-765.5 425.9,-759.5 425.9,-753.5 425.9,-753.5 425.9,-626.5 425.9,-626.5 425.9,-620.5 431.9,-614.5 437.9,-614.5"/>
<text text-anchor="middle" x="555.9" y="-750.3" font-family="Times New Roman,serif" font-size="14.00">Submission</text>
<polyline fill="none" stroke="black" points="425.9,-742.5 685.9,-742.5 "/>
<text text-anchor="start" x="433.9" y="-727.3" font-family="Times New Roman,serif" font-size="14.00">created_at :timestamp(6) without time zone</text>
<text text-anchor="start" x="433.9" y="-712.3" font-family="Times New Roman,serif" font-size="14.00">updated_at :timestamp(6) without time zone</text>
<text text-anchor="start" x="433.9" y="-697.3" font-family="Times New Roman,serif" font-size="14.00">question_id :bigint</text>
<text text-anchor="start" x="433.9" y="-682.3" font-family="Times New Roman,serif" font-size="14.00">answer :character varying</text>
<text text-anchor="start" x="433.9" y="-667.3" font-family="Times New Roman,serif" font-size="14.00">is_correct :boolean</text>
<text text-anchor="start" x="433.9" y="-652.3" font-family="Times New Roman,serif" font-size="14.00">user_id :bigint</text>
<text text-anchor="start" x="433.9" y="-637.3" font-family="Times New Roman,serif" font-size="14.00">result_id :bigint</text>
<text text-anchor="start" x="433.9" y="-622.3" font-family="Times New Roman,serif" font-size="14.00">id :bigint</text>
</g>
<!-- Result&#45;&gt;Submission -->
<g id="edge10" class="edge">
<title>Result&#45;&gt;Submission</title>
<path fill="none" stroke="#dbd76d" d="M555.9,-800.73C555.9,-792.52 555.9,-784.08 555.9,-775.7"/>
<polygon fill="#dbd76d" stroke="#dbd76d" points="555.9,-800.73 551.4,-810.73 555.9,-805.73 555.9,-810.73 555.9,-810.73 555.9,-810.73 555.9,-805.73 560.4,-810.73 555.9,-800.73 555.9,-800.73"/>
<polygon fill="#dbd76d" stroke="#dbd76d" points="555.9,-775.52 560.4,-765.52 555.9,-770.52 555.9,-765.52 555.9,-765.52 555.9,-765.52 555.9,-770.52 551.4,-765.52 555.9,-775.52 555.9,-775.52"/>
</g>
<!-- User -->
<g id="node10" class="node">
<title>User</title>
<path fill="none" stroke="black" d="M512.9,-276.5C512.9,-276.5 822.9,-276.5 822.9,-276.5 828.9,-276.5 834.9,-282.5 834.9,-288.5 834.9,-288.5 834.9,-550.5 834.9,-550.5 834.9,-556.5 828.9,-562.5 822.9,-562.5 822.9,-562.5 512.9,-562.5 512.9,-562.5 506.9,-562.5 500.9,-556.5 500.9,-550.5 500.9,-550.5 500.9,-288.5 500.9,-288.5 500.9,-282.5 506.9,-276.5 512.9,-276.5"/>
<text text-anchor="middle" x="667.9" y="-547.3" font-family="Times New Roman,serif" font-size="14.00">User</text>
<polyline fill="none" stroke="black" points="500.9,-539.5 834.9,-539.5 "/>
<text text-anchor="start" x="508.9" y="-524.3" font-family="Times New Roman,serif" font-size="14.00">id :bigint</text>
<text text-anchor="start" x="508.9" y="-509.3" font-family="Times New Roman,serif" font-size="14.00">email :character varying</text>
<text text-anchor="start" x="508.9" y="-494.3" font-family="Times New Roman,serif" font-size="14.00">first_name :character varying</text>
<text text-anchor="start" x="508.9" y="-479.3" font-family="Times New Roman,serif" font-size="14.00">last_name :character varying</text>
<text text-anchor="start" x="508.9" y="-464.3" font-family="Times New Roman,serif" font-size="14.00">encrypted_password :character varying</text>
<text text-anchor="start" x="508.9" y="-449.3" font-family="Times New Roman,serif" font-size="14.00">reset_password_token :character varying</text>
<text text-anchor="start" x="508.9" y="-434.3" font-family="Times New Roman,serif" font-size="14.00">reset_password_sent_at :timestamp(6) without time zone</text>
<text text-anchor="start" x="508.9" y="-419.3" font-family="Times New Roman,serif" font-size="14.00">remember_created_at :timestamp(6) without time zone</text>
<text text-anchor="start" x="508.9" y="-404.3" font-family="Times New Roman,serif" font-size="14.00">confirmation_token :character varying</text>
<text text-anchor="start" x="508.9" y="-389.3" font-family="Times New Roman,serif" font-size="14.00">confirmed_at :timestamp(6) without time zone</text>
<text text-anchor="start" x="508.9" y="-374.3" font-family="Times New Roman,serif" font-size="14.00">confirmation_sent_at :timestamp(6) without time zone</text>
<text text-anchor="start" x="508.9" y="-359.3" font-family="Times New Roman,serif" font-size="14.00">unconfirmed_email :character varying</text>
<text text-anchor="start" x="508.9" y="-344.3" font-family="Times New Roman,serif" font-size="14.00">course_id :integer</text>
<text text-anchor="start" x="508.9" y="-329.3" font-family="Times New Roman,serif" font-size="14.00">is_admin :boolean</text>
<text text-anchor="start" x="508.9" y="-314.3" font-family="Times New Roman,serif" font-size="14.00">session_questions :character varying</text>
<text text-anchor="start" x="508.9" y="-299.3" font-family="Times New Roman,serif" font-size="14.00">created_at :timestamp(6) without time zone</text>
<text text-anchor="start" x="508.9" y="-284.3" font-family="Times New Roman,serif" font-size="14.00">updated_at :timestamp(6) without time zone</text>
</g>
<!-- Result&#45;&gt;User -->
<g id="edge9" class="edge">
<title>Result&#45;&gt;User</title>
<path fill="none" stroke="#2df29d" d="M666.87,-803.73C678.11,-792.54 687.93,-779.96 694.9,-766 724.3,-707.11 723.64,-635.46 713.24,-572.71"/>
<polygon fill="#2df29d" stroke="#2df29d" points="666.57,-804.02 656.21,-807.62 662.93,-807.45 659.3,-810.89 659.3,-810.89 659.3,-810.89 662.93,-807.45 662.39,-814.16 666.57,-804.02 666.57,-804.02"/>
<polygon fill="#2df29d" stroke="#2df29d" points="713.22,-572.57 715.93,-561.94 712.36,-567.64 711.49,-562.72 711.49,-562.72 711.49,-562.72 712.36,-567.64 707.06,-563.49 713.22,-572.57 713.22,-572.57"/>
</g>
<!-- Submission&#45;&gt;User -->
<g id="edge11" class="edge">
<title>Submission&#45;&gt;User</title>
<path fill="none" stroke="#acca8a" d="M591.1,-604.6C595.47,-594.13 600.03,-583.19 604.66,-572.09"/>
<polygon fill="#acca8a" stroke="#acca8a" points="590.94,-604.98 582.94,-612.48 589.02,-609.59 587.09,-614.21 587.09,-614.21 587.09,-614.21 589.02,-609.59 591.25,-615.94 590.94,-604.98 590.94,-604.98"/>
<polygon fill="#acca8a" stroke="#acca8a" points="604.71,-571.96 612.72,-564.47 606.64,-567.35 608.56,-562.73 608.56,-562.73 608.56,-562.73 606.64,-567.35 604.41,-561 604.71,-571.96 604.71,-571.96"/>
</g>
</g>
</svg>
